<?xml version="1.0" encoding="utf-8"?>
<!-- Generator: Adobe Illustrator 18.0.0, SVG Export Plug-In . SVG Version: 6.00 Build 0)  -->
<!DOCTYPE svg PUBLIC "-//W3C//DTD SVG 1.1//EN" "http://www.w3.org/Graphics/SVG/1.1/DTD/svg11.dtd">
<svg version="1.1" id="Layer_1" xmlns="http://www.w3.org/2000/svg" xmlns:xlink="http://www.w3.org/1999/xlink" x="0px" y="0px"
	 viewBox="0 0 130 130" enable-background="new 0 0 130 130" xml:space="preserve">
<g>
	<polygon fill="#006168" points="13,35 65,5 117,35 117,95 65,125 13,95 	"/>
	<polygon fill="#00939C" points="117,94.9 65,125 13,94.9 13,87 117,87 	"/>
	<rect x="41.7" y="29.1" fill="#F4831F" width="14.2" height="37.9"/>
	<rect x="55.9" y="39.7" fill="#9BCE7E" width="29.6" height="37"/>
	<rect x="32.1" y="52.9" fill="#F8CA26" width="39.9" height="37"/>
	<rect x="72" y="52.9" fill="#78BF71" width="1.6" height="18.5"/>
	<rect x="55.9" y="39.7" fill="#78BF71" width="1.6" height="13.2"/>
	<rect x="65.5" y="71.4" fill="#0FA3C1" width="39.9" height="18.5"/>
	<path fill="#FDE792" d="M49.9,64.9c0,1.5-1.2,2.7-2.7,2.7l0,0c-1.5,0-2.7-1.2-2.7-2.7v-1.4c0-1.5,1.2-2.7,2.7-2.7l0,0
		c1.5,0,2.7,1.2,2.7,2.7V64.9z"/>
	<path fill="#FDE792" d="M40.7,64.9c0,1.5-1.2,2.7-2.7,2.7l0,0c-1.5,0-2.7-1.2-2.7-2.7v-1.4c0-1.5,1.2-2.7,2.7-2.7l0,0
		c1.5,0,2.7,1.2,2.7,2.7V64.9z"/>
	<path fill="#FDE792" d="M59,64.9c0,1.5-1.2,2.7-2.7,2.7l0,0c-1.5,0-2.7-1.2-2.7-2.7v-1.4c0-1.5,1.2-2.7,2.7-2.7l0,0
		c1.5,0,2.7,1.2,2.7,2.7V64.9z"/>
	<path fill="#FDE792" d="M49.9,78.4c0,1.5-1.2,2.7-2.7,2.7l0,0c-1.5,0-2.7-1.2-2.7-2.7V77c0-1.5,1.2-2.7,2.7-2.7l0,0
		c1.5,0,2.7,1.2,2.7,2.7V78.4z"/>
	<path fill="#FDE792" d="M40.7,78.4c0,1.5-1.2,2.7-2.7,2.7l0,0c-1.5,0-2.7-1.2-2.7-2.7V77c0-1.5,1.2-2.7,2.7-2.7l0,0
		c1.5,0,2.7,1.2,2.7,2.7V78.4z"/>
	<path fill="#FDE792" d="M62.4,89.9c0-1.3,0-11.2,0-11.2c0-2.4-2-4.4-4.4-4.4c-2.4,0-4.4,2-4.4,4.4v11.2"/>
	<path fill="#FDE792" d="M68.2,64.9c0,1.5-1.2,2.7-2.7,2.7l0,0c-1.5,0-2.7-1.2-2.7-2.7v-1.4c0-1.5,1.2-2.7,2.7-2.7l0,0
		c1.5,0,2.7,1.2,2.7,2.7V64.9z"/>
	<rect x="43.4" y="31.8" fill="#EA7A24" width="10.9" height="2.4"/>
	<rect x="43.4" y="38" fill="#EA7A24" width="10.9" height="2.4"/>
	<rect x="43.4" y="44.3" fill="#EA7A24" width="10.9" height="2.4"/>
	<rect x="43.4" y="50.2" fill="#EA7A24" width="10.9" height="2.4"/>
	<circle fill="#64BD6F" cx="78.9" cy="46.7" r="3.2"/>
	<circle fill="#64BD6F" cx="78.9" cy="58.2" r="3.2"/>
	<rect x="81.6" y="75.6" fill="#0075AD" width="7.7" height="14.3"/>
</g>
</svg>
