<?xml version="1.0" encoding="utf-8"?>
<!-- Generator: Adobe Illustrator 18.0.0, SVG Export Plug-In . SVG Version: 6.00 Build 0)  -->
<!DOCTYPE svg PUBLIC "-//W3C//DTD SVG 1.1//EN" "http://www.w3.org/Graphics/SVG/1.1/DTD/svg11.dtd">
<svg version="1.1" id="Layer_1" xmlns="http://www.w3.org/2000/svg" xmlns:xlink="http://www.w3.org/1999/xlink" x="0px" y="0px"
	 viewBox="0 0 130 130" enable-background="new 0 0 130 130" xml:space="preserve">
<g>
	<polygon fill="#F9DE3A" points="13,35 65,5 117,35 117,95 65,125 13,95 	"/>
	<g>
		<rect x="35.3" y="66" fill="#0FA3C1" width="59.5" height="23.3"/>
		<path fill="#006168" d="M70.2,89.3V73.4c0-0.9-0.7-1.6-1.6-1.6h-7.3c-0.9,0-1.6,0.7-1.6,1.6v15.9"/>
		<rect x="35.3" y="67.3" fill="#004749" width="59.5" height="1.4"/>
		<rect x="86.4" y="51.3" fill="#0FA3C1" width="8.3" height="10.7"/>
		<path fill="#006168" d="M31.8,64.5l32.3-23.3c0.5-0.4,1.3-0.4,1.8,0l32.3,23.3c1.2,0.9,0.6,2.8-0.9,2.8H32.7
			C31.2,67.3,30.6,65.4,31.8,64.5z"/>
		<circle fill="#FFFFFF" cx="91.2" cy="44.2" r="4.2"/>
		<circle fill="#FFFFFF" cx="82.8" cy="34" r="4.2"/>
	</g>
	<polygon fill="#D8B41E" points="100.6,95.2 41.2,95.2 35.3,89.3 94.7,89.3 	"/>
</g>
</svg>
