<?xml version="1.0" encoding="utf-8"?>
<!-- Generator: Adobe Illustrator 18.0.0, SVG Export Plug-In . SVG Version: 6.00 Build 0)  -->
<!DOCTYPE svg PUBLIC "-//W3C//DTD SVG 1.1//EN" "http://www.w3.org/Graphics/SVG/1.1/DTD/svg11.dtd">
<svg version="1.1" id="Layer_1" xmlns="http://www.w3.org/2000/svg" xmlns:xlink="http://www.w3.org/1999/xlink" x="0px" y="0px"
	 viewBox="0 0 130 130" enable-background="new 0 0 130 130" xml:space="preserve">
<g>
	<polygon fill="#00939C" points="13,35 65,5 117,35 117,95 65,125 13,95 	"/>
	<polygon fill="#006168" points="85.8,89.5 84.5,89.5 84.5,90.2 44.7,90.2 44.7,94.4 47.1,94.4 46.3,97.7 52.7,97.7 53.6,94.4 
		78.3,94.4 77.4,97.7 83.9,97.7 84.8,94.4 84.8,94.4 85.8,94.4 	"/>
	<g>
		<rect x="77.4" y="88.3" fill="#DC8256" width="6.5" height="9.4"/>
		<rect x="46.3" y="88.3" fill="#DC8256" width="6.5" height="9.4"/>
		<path fill="#DC8256" d="M84.3,32.3H46.1c-3.1,0-5.5,2.5-5.5,5.5v46.8c0,3.1,2.5,5.5,5.5,5.5h38.2c3.1,0,5.5-2.5,5.5-5.5V37.8
			C89.8,34.8,87.3,32.3,84.3,32.3z"/>
		<path fill="#A3411A" d="M85.8,65.4c0,3.1-2.5,5.5-5.5,5.5H50c-3.1,0-5.5-2.5-5.5-5.5V42c0-3.1,2.5-5.5,5.5-5.5h30.3
			c3.1,0,5.5,2.5,5.5,5.5V65.4z"/>
		<path fill="#CCCCCC" d="M85.8,64.5c0,3.1-2.5,5.5-5.5,5.5H50c-3.1,0-5.5-2.5-5.5-5.5V41.2c0-3.1,2.5-5.5,5.5-5.5h30.3
			c3.1,0,5.5,2.5,5.5,5.5V64.5z"/>
		<rect x="77.4" y="90.2" fill="#A3411A" width="6.5" height="2.6"/>
		<rect x="46.3" y="90.2" fill="#A3411A" width="6.5" height="2.6"/>
		<ellipse fill="#A3411A" cx="48" cy="78.1" rx="3.5" ry="3.8"/>
		<ellipse fill="#A3411A" cx="82.3" cy="78.1" rx="3.5" ry="3.8"/>
		<circle fill="#CCCCCC" cx="82.3" cy="76.9" r="3.5"/>
		<circle fill="#CCCCCC" cx="48" cy="76.9" r="3.5"/>
		<path fill="#A3411A" d="M69.8,87.6h-8.4c-3.1,0-5.5-2.5-5.5-5.5v-2.6c0-3.1,2.5-5.5,5.5-5.5h8.4c3.1,0,5.5,2.5,5.5,5.5v2.6
			C75.4,85.1,72.9,87.6,69.8,87.6z"/>
		<path fill="#CCCCCC" d="M69.8,86.6h-8.4c-3.1,0-5.5-2.5-5.5-5.5v-2.6c0-3.1,2.5-5.5,5.5-5.5h8.4c3.1,0,5.5,2.5,5.5,5.5v2.6
			C75.4,84.1,72.9,86.6,69.8,86.6z"/>
		
			<rect x="67.3" y="61.2" transform="matrix(0.7071 -0.7071 0.7071 0.7071 -21.2212 72.3134)" fill="#808080" width="18.7" height="1.2"/>
		
			<rect x="47.7" y="61.2" transform="matrix(0.7071 -0.7071 0.7071 0.7071 -26.9638 58.4495)" fill="#808080" width="18.7" height="1.2"/>
		
			<rect x="66.8" y="60.6" transform="matrix(0.7071 -0.7071 0.7071 0.7071 -21.0053 71.7707)" fill="#E6E6E6" width="18.7" height="1.2"/>
		
			<rect x="47.2" y="60.6" transform="matrix(0.7071 -0.7071 0.7071 0.7071 -26.7404 57.925)" fill="#E6E6E6" width="18.7" height="1.2"/>
	</g>
</g>
</svg>
