<?xml version="1.0" encoding="utf-8"?>
<!-- Generator: Adobe Illustrator 18.0.0, SVG Export Plug-In . SVG Version: 6.00 Build 0)  -->
<!DOCTYPE svg PUBLIC "-//W3C//DTD SVG 1.1//EN" "http://www.w3.org/Graphics/SVG/1.1/DTD/svg11.dtd">
<svg version="1.1" id="Layer_1" xmlns="http://www.w3.org/2000/svg" xmlns:xlink="http://www.w3.org/1999/xlink" x="0px" y="0px"
	 viewBox="0 0 130 130" enable-background="new 0 0 130 130" xml:space="preserve">
<g>
	<polygon fill="#664D8C" points="117,95 65,125 13,95 13,35 65,5 117,35 	"/>
	<g>
		<g>
			<circle fill="#432C5B" cx="66.9" cy="68.4" r="30"/>
			<circle fill="#FFFFFF" cx="64.5" cy="65" r="30"/>
			<polygon fill="#CCCCCC" points="71.6,80.4 76.5,77.5 81.5,80.4 81.5,86.1 76.5,89 71.6,86.1 			"/>
			<polygon fill="#CCCCCC" points="71.6,62.1 76.5,59.3 81.5,62.1 81.5,67.9 76.5,70.7 71.6,67.9 			"/>
			<polygon fill="#E6E6E6" points="77.1,71.3 82,68.4 87,71.3 87,77 82,79.9 77.1,77 			"/>
			<polygon fill="#E6E6E6" points="77.1,53 82,50.2 87,53 87,58.8 82,61.6 77.1,58.8 			"/>
			<polygon fill="#CCCCCC" points="82.5,62.1 87.5,59.3 92.5,62.1 92.5,67.9 87.5,70.7 82.5,67.9 			"/>
		</g>
		<polyline fill="#432C5B" points="102.2,40.5 104,41.2 104.6,41.5 102.2,42.9 101,45 99.9,42.9 		"/>
		<polyline fill="#432C5B" points="97.2,47.6 99.1,48.3 99.6,48.6 97.2,50 96.1,52.1 94.9,50 		"/>
		<polyline fill="#432C5B" points="94.5,32.3 99.3,34 100.8,34.9 94.5,38.3 91.5,43.9 88.5,38.3 		"/>
		<polygon fill="#FFFFFF" points="96.9,47.1 99.1,48.3 96.9,49.4 95.8,51.6 94.6,49.4 92.5,48.3 94.6,47.1 95.8,45 		"/>
		<polyline fill="#432C5B" points="29.2,76.6 31,77.3 31.6,77.6 29.2,79 28,81.1 26.9,79 		"/>
		<polygon fill="#FFFFFF" points="28.9,76.1 31,77.3 28.9,78.4 27.7,80.6 26.6,78.4 24.4,77.3 26.6,76.1 27.7,74 		"/>
		<polyline fill="#432C5B" points="34.4,88.3 37.8,89.5 38.9,90.2 34.4,92.7 32.2,96.7 30,92.7 		"/>
		<polygon fill="#FFFFFF" points="33.8,87.3 37.8,89.5 33.8,91.7 31.6,95.7 29.4,91.7 25.4,89.5 29.4,87.3 31.6,83.3 		"/>
		<polygon fill="#FFFFFF" points="101.9,40 104,41.2 101.9,42.3 100.7,44.5 99.6,42.3 97.5,41.2 99.6,40 100.7,37.9 		"/>
		<polyline fill="#432C5B" points="84.8,23.1 86.6,23.8 87.2,24.1 84.8,25.5 83.6,27.6 82.5,25.5 		"/>
		<polygon fill="#FFFFFF" points="84.5,22.6 86.6,23.8 84.5,24.9 83.3,27.1 82.2,24.9 80.1,23.8 82.2,22.6 83.3,20.5 		"/>
		<polygon fill="#FFFFFF" points="93.8,31 99.3,34 93.8,37 90.8,42.6 87.8,37 82.2,34 87.8,31 90.8,25.5 		"/>
	</g>
</g>
</svg>
