<?xml version="1.0" encoding="utf-8"?>
<!-- Generator: Adobe Illustrator 18.0.0, SVG Export Plug-In . SVG Version: 6.00 Build 0)  -->
<!DOCTYPE svg PUBLIC "-//W3C//DTD SVG 1.1//EN" "http://www.w3.org/Graphics/SVG/1.1/DTD/svg11.dtd">
<svg version="1.1" id="Layer_1" xmlns="http://www.w3.org/2000/svg" xmlns:xlink="http://www.w3.org/1999/xlink" x="0px" y="0px"
	 viewBox="0 0 164 164" enable-background="new 0 0 164 164" xml:space="preserve">
<g>
	<path fill="#808080" d="M82.2,81.8c3.6,0,6.5-2.9,6.5-6.5c0-3.6-2.9-6.5-6.5-6.5c-3.6,0-6.5,2.9-6.5,6.5
		C75.7,78.9,78.6,81.8,82.2,81.8z M79.4,72.5c0.7-0.7,1.7-1.2,2.8-1.2c1.1,0,2.1,0.4,2.8,1.2c0.7,0.7,1.2,1.7,1.2,2.8
		c0,1.1-0.4,2.1-1.2,2.8c-0.7,0.7-1.7,1.2-2.8,1.2c-1.1,0-2.1-0.4-2.8-1.2c-0.7-0.7-1.2-1.7-1.2-2.8C78.2,74.2,78.7,73.3,79.4,72.5z
		"/>
	<path fill="#808080" d="M102.9,91.1c-0.6-1.3-1.5-2.2-2.4-2.7c-1-0.5-1.9-0.6-2.6-0.6c-0.2,0-0.3,0-0.5,0c0-3.1,0-5.9,0-7
		c0-0.2,0-0.3,0-0.4v0c0-6.1-1.1-11.8-3.5-16.9c-2.4-5.1-6.1-9.6-11.2-13.2c-0.4-0.3-0.9-0.3-1.3-0.1c-0.1,0.1-0.2,0.2-0.3,0.3
		c-5,3.6-8.7,8-11,13c-2.4,5.1-3.5,10.8-3.5,16.9c0,0.1,0,0.2,0,0.4c0,1.1,0,3.9,0,7c-0.2,0-0.3,0-0.5,0c-0.5,0-1,0-1.7,0.2
		c-0.9,0.3-1.9,0.8-2.7,1.9c-0.8,1-1.3,2.5-1.3,4.4c0,0.1,0,0.2,0,0.3l3.9,18.2c0.1,0.6,0.7,1,1.3,1c0.6,0,1.1-0.5,1.2-1l1.7-10
		c1,0.9,2.4,1.5,3.9,1.5h6.6l1.8,8.5c0.1,0.6,0.6,1,1.2,1h0.2c0.6,0,1.1-0.4,1.2-1l1.7-8.5h6.5c1.5,0,2.9-0.6,3.9-1.6l1.7,10
		c0.1,0.6,0.6,1,1.2,1c0.6,0,1.1-0.4,1.3-1l3.9-18.2c0-0.1,0-0.2,0-0.3C103.5,93,103.3,92,102.9,91.1z M82,51.4L82,51.4L82,51.4
		L82,51.4z M82,52.9c3.1,2.3,5.5,4.9,7.4,7.7H74.6C76.5,57.8,79,55.2,82,52.9z M69.1,80.5c0-5.8,1.1-11.1,3.3-15.9
		c0.2-0.5,0.5-1,0.7-1.4H91c0.2,0.5,0.5,0.9,0.7,1.4c2.2,4.7,3.2,10.1,3.3,15.9v0c0,0.1,0,0.2,0,0.4c0,1.4,0,6,0,10.2
		c0,1.3,0,2.7,0,3.8H87l0-0.1l0-0.1c0.1-0.9,0.2-1.7,0.2-2.4c0-1.2-0.2-1.9-0.4-2.5c-0.2-0.4-0.4-0.7-0.6-0.8
		c-0.5-0.6-1.2-1-1.8-1.2c-0.7-0.3-1.4-0.4-2-0.4c-0.2,0-0.3,0-0.5,0c-0.2,0-0.3,0-0.5,0c-0.6,0-1.3,0.1-2,0.4
		c-0.6,0.2-1.3,0.6-1.8,1.2c-0.2,0.2-0.4,0.4-0.6,0.8c-0.2,0.6-0.4,1.3-0.4,2.5c0,0.7,0.1,1.4,0.2,2.4l0,0.1l0,0h-7.9
		c0-4.8,0-12.2,0-14C69.1,80.7,69.1,80.6,69.1,80.5z M65.3,105.9l-2.5-11.6c0.1-1,0.2-1.7,0.5-2.2c0.4-0.8,0.8-1.2,1.3-1.4
		c0.5-0.2,1-0.3,1.5-0.3c0.2,0,0.4,0,0.5,0c0,3.1,0,6.1,0,7.7c0,0.2,0,0.4,0,0.6c0,0.2,0,0.3,0,0.5c-0.1,0.1-0.1,0.3-0.1,0.4
		L65.3,105.9z M72.3,101.9c-0.9,0-1.7-0.4-2.3-0.9c-0.6-0.6-0.9-1.4-0.9-2.3c0-0.1,0-0.3,0-0.4l0-0.2c0-0.2,0-0.4,0-0.7h8.4l0.9,4.5
		H72.3z M82,106.9l-2.6-12.5c-0.1-0.8-0.2-1.5-0.2-2c0-0.9,0.1-1.3,0.2-1.5l0,0c0.1-0.1,0.1-0.1,0.2-0.2c0.1-0.2,0.4-0.4,0.8-0.5
		c0.4-0.1,0.8-0.2,1.1-0.2c0.1,0,0.8,0,0.9,0c0.3,0,0.7,0.1,1.1,0.2c0.4,0.1,0.6,0.3,0.8,0.5c0,0.1,0.1,0.1,0.2,0.2
		c0,0.1,0.2,0.5,0.2,1.5c0,0.5,0,1.2-0.2,2L82,106.9z M91.6,101.9h-6l0.9-4.5h8.4c0,0.4,0,0.8,0,1.1c0,0.1,0,0.2,0,0.2
		c0,0.1-0.1,0.2-0.1,0.3C94.6,100.6,93.3,101.9,91.6,101.9z M98.6,105.9l-1.1-6.4c0-0.1-0.1-0.2-0.1-0.3l0,0c0-0.2,0-1.2,0-2.7
		c0-1.6,0-3.8,0-6.1c0.1,0,0.3,0,0.5,0c0.3,0,0.6,0,1,0.1c0.5,0.2,1,0.4,1.4,0.9c0.4,0.5,0.8,1.4,0.8,2.9L98.6,105.9z"/>
</g>
</svg>
