<?xml version="1.0" encoding="utf-8"?>
<!-- Generator: Adobe Illustrator 18.0.0, SVG Export Plug-In . SVG Version: 6.00 Build 0)  -->
<!DOCTYPE svg PUBLIC "-//W3C//DTD SVG 1.1//EN" "http://www.w3.org/Graphics/SVG/1.1/DTD/svg11.dtd">
<svg version="1.1" id="Layer_1" xmlns="http://www.w3.org/2000/svg" xmlns:xlink="http://www.w3.org/1999/xlink" x="0px" y="0px"
	 viewBox="0 0 164 164" enable-background="new 0 0 164 164" xml:space="preserve">
<g>
	<path fill="#808080" d="M78.8,87.4L78.8,87.4L78.8,87.4z"/>
	<path fill="#808080" d="M114.1,92L114.1,92c-1.1-5.8-6-9.9-11.6-10.2l-7.3-14.5h4.6c1.9,0,3.3-1.5,3.3-3.3v-3.1
		c0-1.8-1.5-3.3-3.3-3.3h-5.9c-0.1,0-0.2,0-0.3,0c-0.1,0-0.3,0-0.4,0c-1.5,0-2.8,0.5-3.8,1.4c-1,0.9-1.7,2.1-1.6,3.5
		c0,0.4,0.1,0.8,0.2,1.2l-6.4,2.8c-0.8,0.3-1.1,1.3-0.8,2c0.3,0.8,1.3,1.1,2,0.8l4.8-2.1c0.1,0.4,0.2,1,0.3,1.5
		c0.3,1.6,0.6,3.6,0.8,5.2c0.1,0.8,0.2,1.5,0.3,2c0.1,0.5,0.1,0.8,0.1,0.8l0,0c0.2,1.1,0.2,2.1,0.2,2.9c0,1.9-0.3,3.2-0.9,4.3
		c-0.8,1.6-1.9,2.4-3.3,3c-1.1,0.4-2.3,0.6-3.3,0.7c-0.1,0-1.5,0.1-3,0c0,0,0,0,0,0c-0.8-0.1-1.6-0.3-2.2-0.6l0,0c0,0-0.1,0-0.1-0.1
		c-0.4-0.2-0.7-0.5-1-0.9c-0.4-0.5-0.7-1.2-0.8-2c-0.2-0.7-0.2-1.5-0.2-2.2c0-0.5,0-1,0.1-1.4c1.6-0.1,2.9-1.5,2.9-3.2v-0.6
		c0-1.8-1.4-3.2-3.2-3.2H52.9c-1.8,0-3.2,1.4-3.2,3.2v0.6c0,1.6,1.1,2.9,2.7,3.2C50.4,84.8,50,89,50,91.5c0,1.6,0.1,2.6,0.2,2.7
		c0.1,0.6,0.6,1,1.1,1H54c-0.1,0.6-0.2,1.1-0.2,1.7c0,5.2,4.2,9.4,9.4,9.4c5.2,0,9.4-4.2,9.4-9.4c0-0.6-0.1-1.2-0.2-1.7h16.7
		c0,0.5,0.1,1.1,0.2,1.6c0.1,0.4,0.2,0.9,0.3,1.3c0.2,0.6,0.7,0.9,1.3,0.8l1.9-0.4c0.7,4.5,4.5,8,9.3,8c5.2,0,9.4-4.2,9.4-9.4
		c0-0.7-0.1-1.5-0.3-2.2l2.1-0.4c0.6-0.1,1-0.6,0.9-1.2C114.3,92.9,114.2,92.5,114.1,92z M111.9,92.5L111.9,92.5
		C111.9,92.5,111.9,92.5,111.9,92.5l-20.2,3.9c0,0,0,0,0-0.1c-0.1-0.7-0.2-1.3-0.2-1.9c0-4.8,3.4-9.2,8.4-10.1
		c0.7-0.1,1.3-0.2,1.9-0.2C106.6,84.1,110.9,87.5,111.9,92.5z M105,97.4L105,97.4c0,1.5-1.2,2.7-2.6,2.7l0,0l-0.1,0
		c-1.5,0-2.6-1.2-2.7-2.6l0,0l0,0c0-0.1,0-0.2,0-0.3l5-1C104.9,96.6,105,97,105,97.4z M90.9,60.6c0.6-0.5,1.4-0.8,2.3-0.8
		c0.1,0,0.2,0,0.3,0l0.1,0l0.1,0l0.1,0h5.9c0.6,0,1,0.5,1,1v3.1c0,0.6-0.5,1-1,1h-5.9c-0.1,0-0.6-0.1-0.7-0.1v0
		c-0.9,0-1.7-0.3-2.3-0.8C90.3,63.6,90,63,90,62.3C90,61.7,90.3,61.1,90.9,60.6z M52,77.1v-0.6c0-0.5,0.4-0.9,0.9-0.9h21.3
		c0.5,0,0.9,0.4,0.9,0.9v0.6c0,0.5-0.4,0.9-0.9,0.9h-0.7H54.1h-1.2C52.4,78,52,77.6,52,77.1z M54.9,80.3h17.3c0,0.4-0.1,0.9-0.1,1.4
		c0,1.5,0.2,3.3,1.1,5c0.5,0.8,1.1,1.6,2,2.1c0.1,0.1,0.3,0.1,0.4,0.2l-0.1,0c0,0,1.7,1.1,6.1,0.9c0.8,0,1.7-0.1,2.6-0.3
		c1.7-0.4,3.6-1.2,5-2.8c0.7-0.8,1.3-1.8,1.7-3c0.4-1.2,0.6-2.6,0.6-4.2c0-1-0.1-2.1-0.3-3.3h0c0,0-0.3-2.1-0.6-4.5
		c-0.2-1.2-0.4-2.5-0.6-3.6c-0.1-0.4-0.2-0.8-0.2-1.2l2.6,0.1c0,0,0.1,0,0.1,0l7.4,14.8c-0.2,0-0.4,0-0.6,0.1v0
		c-5.5,1.1-9.5,5.6-10.2,10.9H52.4c0-0.4,0-0.8,0-1.3C52.3,89,52.8,84.8,54.9,80.3z M65.2,95.3c0.5,0.5,0.8,1.2,0.8,1.9
		c0,0.7-0.3,1.4-0.8,1.9c-0.5,0.5-1.1,0.8-1.9,0.8c-0.7,0-1.4-0.3-1.9-0.8c-0.5-0.5-0.8-1.2-0.8-1.9c0-0.7,0.3-1.4,0.8-1.9
		c0,0,0.1,0,0.1-0.1L65.2,95.3C65.1,95.2,65.1,95.2,65.2,95.3z M70.3,96.9c0,2-0.8,3.7-2.1,5c-1.3,1.3-3,2.1-5,2.1s-3.7-0.8-5-2.1
		c-1.3-1.3-2.1-3-2.1-5c0-0.6,0.1-1.2,0.2-1.7h2.4c-0.3,0.6-0.4,1.3-0.4,2c0,2.8,2.2,5,5,5c2.8,0,5-2.2,5-5c0-0.7-0.2-1.4-0.4-2h2.2
		C70.2,95.7,70.3,96.3,70.3,96.9z M109.3,97.1c0,2-0.8,3.7-2.1,5c-1.3,1.3-3,2.1-5,2.1c-2,0-3.7-0.8-5-2.1c-1.1-1.1-1.8-2.5-2-4.1
		l2.1-0.4c0.1,2.7,2.3,4.8,5,4.8h0.1h0c2.7-0.1,4.9-2.3,4.9-5l0-0.1v0v0c0-0.6-0.1-1.1-0.3-1.6l2-0.4
		C109.2,96,109.3,96.5,109.3,97.1z"/>
</g>
</svg>
