<?xml version="1.0" encoding="utf-8"?>
<!-- Generator: Adobe Illustrator 18.0.0, SVG Export Plug-In . SVG Version: 6.00 Build 0)  -->
<!DOCTYPE svg PUBLIC "-//W3C//DTD SVG 1.1//EN" "http://www.w3.org/Graphics/SVG/1.1/DTD/svg11.dtd">
<svg version="1.1" id="Layer_1" xmlns="http://www.w3.org/2000/svg" xmlns:xlink="http://www.w3.org/1999/xlink" x="0px" y="0px"
	 viewBox="0 0 164 164" enable-background="new 0 0 164 164" xml:space="preserve">
<g>
	<path fill="#808080" d="M93.3,83c-2.3,0-4.2,1.9-4.2,4.2c0,2.3,1.9,4.2,4.2,4.2c2.3,0,4.2-1.9,4.2-4.2C97.6,84.9,95.7,83,93.3,83z
		 M93.3,89c-1,0-1.7-0.8-1.7-1.7c0-1,0.8-1.7,1.7-1.7c1,0,1.7,0.8,1.7,1.7C95.1,88.2,94.3,89,93.3,89z"/>
	<path fill="#808080" d="M70.9,83c-2.3,0-4.2,1.9-4.2,4.2c0,2.3,1.9,4.2,4.2,4.2c2.3,0,4.2-1.9,4.2-4.2C75.2,84.9,73.3,83,70.9,83z
		 M70.9,89c-1,0-1.7-0.8-1.7-1.7c0-1,0.8-1.7,1.7-1.7c1,0,1.7,0.8,1.7,1.7C72.7,88.2,71.9,89,70.9,89z"/>
	<path fill="#808080" d="M102.3,107.8l-9.6-9.6h2.8c4,0,7.2-3.2,7.2-7.2V61.3c0-4-3.2-7.2-7.2-7.2H68.7c-4,0-7.2,3.2-7.2,7.2V91
		c0,4,3.2,7.2,7.2,7.2h2.6l-9.6,9.6c-0.5,0.5-0.5,1.3,0,1.8c0.5,0.5,1.3,0.5,1.8,0l2.1-2.1h32.8l2.1,2.1c0.5,0.5,1.3,0.5,1.8,0
		C102.8,109.1,102.8,108.3,102.3,107.8z M65.4,94.3c-0.9-0.9-1.4-2-1.4-3.3V61.3c0-1.3,0.5-2.5,1.4-3.3c0.9-0.9,2-1.4,3.3-1.4h26.8
		c1.3,0,2.5,0.5,3.3,1.4c0.9,0.9,1.4,2,1.4,3.3V91c0,1.3-0.5,2.5-1.4,3.3c-0.9,0.9-2,1.4-3.3,1.4H68.7
		C67.4,95.7,66.3,95.2,65.4,94.3z M89.2,98.2l1.6,1.6H73.2l1.6-1.6H89.2z M68.1,104.9l2.6-2.6h22.6l2.6,2.6H68.1z"/>
	<path fill="#808080" d="M68,79.8c0.6,0.5,1.4,0.8,2.3,0.8h23.9c0.9,0,1.6-0.3,2.3-0.8c0.6-0.5,1.1-1.3,1.1-2.2V63.1
		c0-0.9-0.5-1.7-1.1-2.2c-0.6-0.5-1.4-0.8-2.3-0.8H70.2c-0.9,0-1.6,0.3-2.3,0.8c-0.6,0.5-1.1,1.3-1.1,2.2v14.5
		C66.9,78.5,67.3,79.3,68,79.8z M94.8,62.9c0.1,0.1,0.2,0.2,0.2,0.2v14.5c0,0,0,0.1-0.2,0.2c-0.1,0.1-0.4,0.2-0.7,0.2H83.3V62.6
		h10.8C94.4,62.6,94.6,62.7,94.8,62.9z M69.4,63.1c0,0,0-0.1,0.2-0.2c0.1-0.1,0.4-0.2,0.7-0.2H81V78H70.2c-0.3,0-0.5-0.1-0.7-0.2
		c-0.1-0.1-0.1-0.2-0.2-0.2V63.1z"/>
</g>
</svg>
